HIERARCHY
ROOT Hips
{
	OFFSET 0.00000 0.00000 0.00000
	CHANNELS 6 Xposition Yposition Zposition Zrotation Yrotation Xrotation 
	JOINT LHipJoint
	{
		OFFSET 0 0 0
		CHANNELS 3 Zrotation Yrotation Xrotation
		JOINT LeftHip
		{
			OFFSET 1.44960 -1.75505 0.85172
			CHANNELS 3 Zrotation Yrotation Xrotation
			JOINT LeftKnee
			{
				OFFSET 2.40573 -6.60971 0.00000
				CHANNELS 3 Zrotation Yrotation Xrotation
				JOINT LeftAnkle
				{
					OFFSET 2.58773 -7.10974 0.00000
					CHANNELS 3 Zrotation Yrotation Xrotation
					JOINT LeftToe
					{
						OFFSET 0.18252 -0.50147 1.77316
						CHANNELS 3 Zrotation Yrotation Xrotation
						End Site
						{
							OFFSET 0.00000 -0.00000 0.92990
						}
					}
				}
			}
		}
	}
	JOINT RHipJoint
	{
		OFFSET 0 0 0
		CHANNELS 3 Zrotation Yrotation Xrotation
		JOINT RightHip
		{
			OFFSET -1.40744 -1.75505 0.85172
			CHANNELS 3 Zrotation Yrotation Xrotation
			JOINT RightKnee
			{
				OFFSET -2.43714 -6.69600 0.00000
				CHANNELS 3 Zrotation Yrotation Xrotation
				JOINT RightAnkle
				{
					OFFSET -2.51650 -6.91404 0.00000
					CHANNELS 3 Zrotation Yrotation Xrotation
					JOINT RightToe
					{
						OFFSET -0.25383 -0.69740 1.96384
						CHANNELS 3 Zrotation Yrotation Xrotation
						End Site
						{
							OFFSET -0.00000 -0.00000 1.04244
						}
					}
				}
			}
		}
	}
	JOINT lowerback
	{
		OFFSET 0 0 0
		CHANNELS 3 Zrotation Yrotation Xrotation
		JOINT Chest
		{
			OFFSET 0.00579 2.14458 -0.24367
			CHANNELS 3 Zrotation Yrotation Xrotation
			JOINT Chest2
			{
				OFFSET 0.05899 2.16316 -0.04515
				CHANNELS 3 Zrotation Yrotation Xrotation
				JOINT lowerneck
				{
					OFFSET 0 0 0
					CHANNELS 3 Zrotation Yrotation Xrotation
					JOINT Neck
					{
						OFFSET -0.01650 1.59577 0.24841
						CHANNELS 3 Zrotation Yrotation Xrotation
						JOINT Head
						{
							OFFSET -0.01016 1.63072 -0.17782
							CHANNELS 3 Zrotation Yrotation Xrotation
							End Site
							{
								OFFSET -0.00250 1.64111 -0.08717
							}
						}
					}
				}
				JOINT LeftCollar
				{
					OFFSET 0 0 0
					CHANNELS 3 Zrotation Yrotation Xrotation
					JOINT LeftShoulder
					{
						OFFSET 3.17745 0.95174 -0.45729
CHANNELS 3 Zrotation Xrotation Yrotation
						JOINT LeftElbow
						{
OFFSET 0 -4.934850 0.000000
CHANNELS 3 Zrotation Xrotation Yrotation
							JOINT LeftWrist
							{
OFFSET 0 -3.417190 -0.000000
CHANNELS 3 Zrotation Xrotation Yrotation
								JOINT lhand
								{
									OFFSET 0 0 0
CHANNELS 3 Zrotation Xrotation Yrotation
									JOINT LFingers
									{
OFFSET 0 -0.624100 -0.000000
CHANNELS 3 Zrotation Xrotation Yrotation
										End Site
										{
OFFSET 0 -0.503170 -0.000000
										}
									}
								}
								JOINT LThumb
								{
OFFSET 0 0.000000 0.000000
CHANNELS 3 Zrotation Xrotation Yrotation
									End Site
									{
OFFSET 0 -0.510850 0.510850
									}
								}
							}
						}
					}
				}
				JOINT RightCollar
				{
					OFFSET 0 0 0
					CHANNELS 3 Zrotation Yrotation Xrotation
					JOINT RightShoulder
					{
						OFFSET -2.87924 1.13038 -0.75204
CHANNELS 3 Zrotation Xrotation Yrotation
						JOINT RightElbow
						{
OFFSET 0 -5.220340 0.000000
CHANNELS 3 Zrotation Xrotation Yrotation
							JOINT RightWrist
							{
OFFSET 0 -3.418090 -0.000000
CHANNELS 3 Zrotation Xrotation Yrotation
								JOINT rhand
								{
									OFFSET 0 0 0
CHANNELS 3 Zrotation Xrotation Yrotation
									JOINT RFingers
									{
OFFSET 0 -0.775340 -0.000000
CHANNELS 3 Zrotation Xrotation Yrotation
										End Site
										{
OFFSET 0 -0.625100 -0.000000
										}
									}
								}
								JOINT RThumb
								{
OFFSET 0 0.000000 0.000000
CHANNELS 3 Zrotation Xrotation Yrotation
									End Site
									{
OFFSET 0 -0.634640 0.634640
									}
								}
							}
						}
					}
				}
			}
		}
	}
}
MOTION
Frames: 10
Frame Time: 0.008333333333333333
1.322700 17.511400 -35.049000 -3.589100 -3.142300 6.888800 0.000000 0.000000 0.000000 -15.139100 -6.872600 -8.305500 1.911100 8.678400 24.794500 1.507600 -1.096200 -22.896800 0.049500 -1.436400 -3.950500 0.000000 0.000000 0.000000 22.436000 3.146000 -9.629400 -1.789800 -8.413800 23.978300 -1.338400 2.288900 -21.241200 -0.021900 0.954500 -2.623700 0.309600 -2.154200 -9.992900 3.358100 -3.164600 1.638200 2.855600 -1.615800 7.527900 -12.580800 -12.861200 -4.557800 16.115100 -21.184900 25.515800 5.128300 -9.465100 12.356000 0.000000 0.000000 0.000000 11.935900 26.711600 -37.010400 32.874700 -43.233500 13.336200 10.529700 9.984800 -47.601600 0.000000 0.000000 0.000000 -7.125000 0.000000 0.000000 -50.220300 72.755400 35.388100 0.000000 0.000000 0.000000 -26.801000 20.620200 42.300300 -28.397100 -39.479200 -10.375200 -6.655200 -15.715400 -12.359500 0.000000 0.000000 0.000000 7.125000 0.000000 -0.000000 14.242500 17.755300 9.520400
1.319121 17.498617 -35.062886 -3.711731 -3.512321 6.753983 0.000000 0.000000 0.000000 -15.062863 -6.823805 -8.218296 1.934397 8.728045 24.948233 1.518971 -0.698778 -23.101820 0.062880 -1.616275 -4.446377 0.000000 0.000000 0.000000 22.518842 3.173420 -9.546290 -1.793086 -8.421092 24.000540 -1.328204 2.715781 -21.064652 -0.001737 0.263308 -0.723376 0.259028 -2.022794 -9.916078 3.544311 -3.000003 1.765782 3.111126 -1.544149 7.625958 -12.602857 -13.062969 -4.181761 15.852243 -21.650534 26.534795 4.994498 -9.683949 12.751502 0.000000 0.000000 0.000000 11.076751 25.626827 -34.959003 31.781608 -42.372130 12.593475 10.578690 8.560529 -47.820768 0.000000 0.000000 0.000000 -7.125000 0.000000 0.000000 -50.771508 72.898727 35.967702 0.000000 0.000000 0.000000 -26.318348 19.297445 39.907776 -27.085738 -38.257947 -9.553322 -6.773710 -16.838284 -12.567721 0.000000 0.000000 0.000000 7.125000 0.000000 0.000000 14.149121 17.547237 9.520797
1.312822 17.495068 -35.081137 -3.705684 -3.926620 6.614034 0.000000 0.000000 0.000000 -15.118599 -6.739403 -8.093921 1.941149 8.742490 24.992960 1.519709 -0.305345 -23.229466 0.077959 -1.800780 -4.955416 0.000000 0.000000 0.000000 22.499483 3.427621 -9.445165 -1.801327 -8.439400 24.056937 -1.315587 2.783177 -20.946920 -0.000298 0.109919 -0.301931 0.191933 -1.937963 -9.784643 3.619368 -2.887460 1.931649 3.250471 -1.496407 7.729951 -12.446086 -13.232962 -4.291778 15.299748 -22.044042 27.946271 4.707344 -9.834621 13.340432 0.000000 0.000000 0.000000 10.338439 24.857871 -32.720285 31.138712 -41.849605 12.162245 9.675594 6.443969 -48.104624 0.000000 0.000000 0.000000 -7.125000 0.000000 0.000000 -52.313234 72.729898 37.040458 0.000000 0.000000 0.000000 -25.766503 17.548537 37.774484 -25.493748 -36.704228 -8.583322 -7.704290 -17.631069 -12.612667 0.000000 0.000000 0.000000 7.125000 0.000000 0.000000 13.512077 17.460944 9.092631
1.306446 17.494150 -35.105045 -3.679209 -4.125991 6.541712 0.000000 0.000000 0.000000 -15.131768 -6.559877 -8.126213 1.939733 8.739376 24.983398 1.514343 -0.235844 -23.210412 0.093416 -1.970172 -5.423279 0.000000 0.000000 0.000000 22.470605 3.508578 -9.507611 -1.817872 -8.475858 24.169039 -1.306998 2.905683 -20.851677 -0.000357 0.117575 -0.323140 0.130297 -1.846773 -9.629029 3.743326 -2.768425 2.052602 3.441020 -1.446171 7.773175 -12.524072 -13.417778 -4.222025 15.002560 -22.438318 28.951777 4.553062 -10.008381 13.806364 0.000000 0.000000 0.000000 9.682554 24.142242 -30.949017 30.824471 -41.589655 11.953138 8.541306 3.947345 -48.004593 0.000000 0.000000 0.000000 -7.125000 0.000000 0.000000 -52.991542 72.266679 37.119500 0.000000 0.000000 0.000000 -25.312514 16.229452 35.525013 -24.344737 -35.524534 -7.906888 -9.052578 -18.222166 -12.831644 0.000000 0.000000 0.000000 7.125000 0.000000 0.000000 12.580903 17.178133 8.512444
1.312478 17.491842 -35.135004 -3.552841 -4.083044 6.410098 0.000000 0.000000 0.000000 -15.298845 -6.628443 -8.084334 1.939023 8.737955 24.979093 1.501385 -0.175433 -23.129688 0.099452 -2.033904 -5.599427 0.000000 0.000000 0.000000 22.286552 3.200162 -9.659147 -1.830836 -8.504478 24.257043 -1.289906 3.156807 -20.662270 -0.001645 0.260041 -0.714363 0.203656 -1.976497 -9.401190 3.801358 -2.955924 2.190639 3.435361 -1.537840 7.802237 -12.563102 -13.431383 -4.215873 14.607920 -22.524381 29.883608 4.409263 -10.054323 14.180237 0.000000 0.000000 0.000000 8.904200 23.387024 -28.707623 30.366132 -41.205106 11.650050 7.177771 1.216221 -47.283503 0.000000 0.000000 0.000000 -7.125000 0.000000 0.000000 -52.278697 71.380656 35.648569 0.000000 0.000000 0.000000 -25.009511 14.919140 33.661916 -23.535049 -34.668441 -7.440574 -11.129795 -18.542886 -12.263705 0.000000 0.000000 0.000000 7.125000 0.000000 0.000000 11.175848 17.627685 7.409525
1.305031 17.492824 -35.149047 -3.671029 -4.074240 6.356271 0.000000 0.000000 0.000000 -15.131964 -6.656036 -8.067868 1.941602 8.743297 24.995669 1.497621 -0.158535 -23.106162 0.097255 -2.011019 -5.536178 0.000000 0.000000 0.000000 22.464195 3.302333 -9.635442 -1.838397 -8.521030 24.308174 -1.290530 3.067674 -20.683685 -0.003530 0.381691 -1.048861 0.321448 -1.988388 -9.438386 3.980589 -3.009963 2.388431 3.549958 -1.566778 8.045342 -12.452953 -13.549153 -4.311631 14.144572 -22.692278 30.566204 4.182028 -10.126482 14.451432 0.000000 0.000000 0.000000 8.303825 22.697911 -27.048883 30.190608 -41.055719 11.534807 6.032418 -1.019744 -47.012260 0.000000 0.000000 0.000000 -7.125000 0.000000 0.000000 -52.594278 70.828382 35.328069 0.000000 0.000000 0.000000 -24.555502 13.420534 31.486260 -22.639561 -33.691848 -6.937524 -11.433565 -18.756175 -12.945508 0.000000 0.000000 0.000000 7.125000 0.000000 0.000000 10.946088 16.929010 7.422335
1.305396 17.492268 -35.162572 -3.603330 -4.111680 6.243876 0.000000 0.000000 0.000000 -15.233319 -6.750504 -7.959613 1.942126 8.744566 24.999429 1.486775 0.015711 -23.079053 0.100774 -2.047005 -5.635546 0.000000 0.000000 0.000000 22.387954 3.302513 -9.598088 -1.844148 -8.533541 24.346868 -1.285844 3.092483 -20.639858 -0.003250 0.368394 -1.012267 0.373557 -1.986199 -9.268489 4.072801 -3.018615 2.446001 3.621697 -1.571980 8.012818 -12.258444 -13.626144 -4.152714 13.627825 -22.783890 31.127911 3.953540 -10.183907 14.576479 0.000000 0.000000 0.000000 7.868097 22.294578 -25.767158 30.071671 -40.954755 11.456556 5.070930 -2.828200 -46.964788 0.000000 0.000000 0.000000 -7.125000 0.000000 0.000000 -53.300918 70.471313 35.508787 0.000000 0.000000 0.000000 -24.116733 12.394642 29.253213 -21.904447 -32.868820 -6.533933 -12.417435 -18.610600 -14.101655 0.000000 0.000000 0.000000 7.125000 0.000000 0.000000 10.250780 15.706036 7.211392
1.300492 17.491434 -35.180557 -3.656330 -4.263718 6.134579 0.000000 0.000000 0.000000 -15.180596 -6.700308 -7.891656 1.944966 8.750587 25.018160 1.477137 0.177832 -23.059553 0.111352 -2.151085 -5.923331 0.000000 0.000000 0.000000 22.453808 3.311733 -9.570704 -1.850726 -8.547929 24.391207 -1.275813 3.188128 -20.538552 -0.001592 0.255962 -0.703355 0.584428 -1.939259 -8.994390 4.188382 -2.985930 2.529955 3.637783 -1.550013 7.938502 -12.178175 -13.689725 -4.147810 13.276366 -22.846923 31.519255 3.796485 -10.220893 14.697122 0.000000 0.000000 0.000000 7.389793 21.971937 -24.425915 30.107972 -40.985708 11.480399 3.740669 -4.618084 -47.051047 0.000000 0.000000 0.000000 -7.125000 0.000000 0.000000 -54.624170 70.068142 36.115928 0.000000 0.000000 0.000000 -23.654860 11.408848 27.397037 -21.530226 -32.441439 -6.332264 -13.780934 -18.706161 -13.627258 0.000000 0.000000 0.000000 7.125000 0.000000 0.000000 9.326179 16.084878 6.464565
1.293331 17.489331 -35.195965 -3.837971 -4.382846 5.926059 0.000000 0.000000 0.000000 -14.951236 -6.473732 -7.792810 1.952616 8.766563 25.067930 1.482302 0.061618 -23.060189 0.106589 -2.104984 -5.795894 0.000000 0.000000 0.000000 22.710129 3.498373 -9.321105 -1.853270 -8.553440 24.408220 -1.275675 3.043761 -20.564570 -0.000376 0.119524 -0.328233 0.784545 -1.894193 -8.779956 4.418998 -2.968212 2.687493 3.779253 -1.540629 7.987136 -12.231117 -13.718121 -3.896257 13.132979 -22.854350 31.574440 3.767301 -10.254633 14.652135 0.000000 0.000000 0.000000 7.028956 21.952476 -23.743071 30.630612 -41.427851 11.824666 2.630945 -5.704898 -47.104620 0.000000 0.000000 0.000000 -7.125000 0.000000 0.000000 -55.668953 69.722806 36.564351 0.000000 0.000000 0.000000 -23.310832 10.439475 25.509879 -21.115183 -31.962324 -6.110924 -14.410273 -18.655443 -14.596786 0.000000 0.000000 0.000000 7.125000 0.000000 0.000000 8.895410 15.053389 6.357854
1.300600 17.493819 -35.218468 -3.646683 -4.279047 5.859317 0.000000 0.000000 0.000000 -15.191979 -6.711391 -7.781524 1.960938 8.784187 25.122540 1.482322 0.055375 -23.057831 0.085840 -1.888009 -5.196329 0.000000 0.000000 0.000000 22.449793 3.154006 -9.467531 -1.851267 -8.549208 24.395069 -1.258351 3.260698 -20.379288 -0.000057 -0.009101 0.025133 0.945215 -1.957973 -8.630534 4.432782 -3.076059 2.845952 3.689648 -1.587330 8.070733 -12.223033 -13.735862 -4.005095 13.092634 -22.864310 31.624125 3.740221 -10.250434 14.692779 0.000000 0.000000 0.000000 6.814602 21.352344 -23.119226 30.568365 -41.375518 11.783573 2.879690 -5.905572 -46.743399 0.000000 0.000000 0.000000 -7.125000 0.000000 0.000000 -54.650919 69.603751 35.639493 0.000000 0.000000 0.000000 -22.931449 9.252011 23.955517 -20.699431 -31.475878 -5.892241 -16.128775 -18.737705 -14.418412 0.000000 0.000000 0.000000 7.125000 0.000000 0.000000 7.724388 15.091160 5.504753
